<svg width="32" height="32" viewBox="0 0 32 32" fill="none" xmlns="http://www.w3.org/2000/svg">
  <circle cx="16" cy="16" r="16" fill="#2775CA"/>
  <path d="M20.0892 14.3064C20.0892 12.6024 18.9122 11.8772 16.5582 11.6004V9.33337H15.1612V11.5564C14.7952 11.5784 14.4072 11.6112 14.0192 11.6552V9.33337H12.6222V11.7212C12.3102 11.7652 11.9772 11.8092 11.6552 11.8532V11.8422H9.71118V13.3612H10.9982C11.6002 13.3612 11.7922 13.6732 11.7922 13.9302V16.8532H11.6002V16.8642C11.6002 16.8642 11.0092 16.8532 10.9982 16.8532H9.71118V18.3722H11.6552V20.6672H13.0522V18.4162C13.4402 18.4492 13.8172 18.4712 14.1832 18.4822V20.6672H15.5802V18.4932C18.4922 18.3502 20.2512 17.6692 20.2512 15.4722C20.2512 13.6842 19.1832 13.0932 17.6642 12.8932C18.7102 12.6384 20.0892 12.0584 20.0892 14.3064ZM14.1832 12.9372C14.9632 12.8712 18.1032 12.6604 18.1032 14.4164C18.1032 16.0884 14.9632 15.9564 14.1832 15.9124V12.9372ZM14.1832 17.1212V13.9412C14.8532 13.8862 17.4972 13.6972 17.4972 15.5272C17.4972 17.2532 14.8532 17.0832 14.1832 17.1212ZM22.2892 11.8422V18.3722H21.0022C20.4002 18.3722 20.2082 18.0602 20.2082 17.8032V11.8422H22.2892Z" fill="white"/>
</svg> 