<svg width="32" height="32" viewBox="0 0 32 32" fill="none" xmlns="http://www.w3.org/2000/svg">
  <circle cx="16" cy="16" r="16" fill="#E84142"/>
  <path d="M20.5996 20.4001H23.4663L18.6663 12.1334C18.3996 11.7334 17.9996 11.4668 17.4663 11.4668C16.9329 11.4668 16.5329 11.7334 16.2663 12.1334L15.3329 13.6001L13.7329 11.0668C13.4663 10.6668 13.0663 10.4001 12.5329 10.4001C11.9996 10.4001 11.5996 10.6668 11.3329 11.0668L6.53291 19.3334C6.26624 19.7334 6.26624 20.1334 6.53291 20.4001C6.79957 20.6668 7.19957 20.9334 7.73291 20.9334H11.9996C12.5329 20.9334 12.9329 20.6668 13.1996 20.2668L15.3329 16.9334L16.2663 18.4001C16.5329 18.8001 16.9329 19.0668 17.4663 19.0668C17.9996 19.0668 18.3996 18.8001 18.6663 18.4001L20.5996 15.3334L20.5996 20.4001ZM11.7329 19.0668H9.13291L12.5329 13.6001L14.1329 16.1334L11.7329 19.0668ZM17.4663 16.9334L16.7996 15.8668L17.4663 14.8001L18.1329 15.8668L17.4663 16.9334Z" fill="white"/>
</svg> 